<svg width="112" height="32" viewBox="0 0 112 32" fill="none" xmlns="http://www.w3.org/2000/svg">
<path d="M14.544 21.416H4.53996C2.03666 21.416 0 19.4914 0 17.1257V14.4202C0 11.8684 2.19688 9.79226 4.89691 9.79226H14.544V11.6257H4.89691C3.27066 11.6257 1.94755 12.8792 1.94755 14.4202V17.1257C1.94755 18.4806 3.11044 19.5826 4.53996 19.5826H14.544V21.416Z" fill="#0066FF"/>
<path d="M11.7844 32.0059C5.80991 32.0059 0.949333 27.4097 0.949333 21.7602H2.89688C2.89688 26.3986 6.88386 30.1725 11.7844 30.1725C16.6849 30.1725 20.6719 26.3986 20.6719 21.7602H22.6195C22.6195 27.4097 17.7589 32.0059 11.7844 32.0059Z" fill="#0066FF"/>
<path d="M23.6208 13.9193C23.6208 13.3084 24.1443 12.8131 24.7901 12.8131C25.4358 12.8131 25.9592 13.3084 25.9592 13.9193C25.9592 14.5301 25.4358 15.0254 24.7901 15.0254C24.1443 15.0254 23.6208 14.5301 23.6208 13.9193Z" fill="#0066FF"/>
<path d="M17.3323 13.9193C17.3323 13.3084 17.8559 12.8131 18.5016 12.8131C19.1473 12.8131 19.6707 13.3084 19.6707 13.9193C19.6707 14.5301 19.1473 15.0254 18.5016 15.0254C17.8559 15.0254 17.3323 14.5301 17.3323 13.9193Z" fill="#0066FF"/>
<path d="M19.2778 16.2026C19.2778 16.2069 19.2771 16.2109 19.2771 16.2152C19.2771 17.421 20.3104 18.3984 21.5851 18.3984C22.8598 18.3984 23.893 17.421 23.893 16.2152C23.893 16.2109 23.8924 16.2069 23.8924 16.2026H19.2778Z" fill="#0066FF"/>
<path d="M21.5804 22.1465C18.427 22.1466 15.6132 20.4162 14.3418 17.6633C14.1274 17.1989 14.3532 16.659 14.8465 16.457C15.3401 16.2552 15.9135 16.4681 16.1277 16.9321C17.124 19.0897 19.3726 20.4159 21.865 20.3069C24.9156 20.1753 27.4051 17.8089 27.5326 14.9199C27.6229 12.8773 26.5233 10.9537 24.7303 9.89155C23.9987 10.9579 22.7414 11.6241 21.337 11.6241H13.6168C11.1135 11.6241 9.07686 9.69952 9.07686 7.33398V4.62851C9.07686 2.07663 11.2737 0.000535965 13.9738 0.000535965H23.6209C24.1586 0.000535965 24.5946 0.410997 24.5946 0.917234C24.5946 1.42347 24.1586 1.83394 23.6209 1.83394H13.9738C12.3475 1.83394 11.0244 3.08748 11.0244 4.62851V7.33398C11.0244 8.68867 12.1873 9.79089 13.6168 9.79089H21.337C22.2699 9.79089 23.0784 9.22195 23.3489 8.37545C23.4286 8.12591 23.6172 7.92003 23.8679 7.80943C24.1188 7.69883 24.4076 7.69411 24.6623 7.79575C27.68 9.00319 29.6154 11.8966 29.4784 14.9961C29.3093 18.8261 26.0043 21.9636 21.9543 22.1383C21.8292 22.1437 21.7045 22.1465 21.5804 22.1465Z" fill="#0066FF"/>
<path d="M39.3157 21.2621C41.1139 21.2621 42.4272 19.9879 42.4272 18.3904C42.4272 16.8119 41.1139 15.5186 39.3157 15.5186C37.5178 15.5186 36.2047 16.8119 36.2047 18.3904C36.2047 19.9879 37.5178 21.2621 39.3157 21.2621ZM35.9016 9.22369C35.9016 9.88923 36.2854 10.1935 36.8916 10.1935H44.1036C44.7301 10.1935 45.0329 10.65 45.0329 11.1063C45.0329 11.5628 44.7301 12.0003 44.1036 12.0003H40.4876V13.7499H46.2249C46.8915 13.7499 47.2149 14.1683 47.2149 14.6438C47.2149 15.1002 46.8915 15.5186 46.2249 15.5186H43.3158C44.2046 16.3174 44.7099 17.4013 44.7099 18.5995C44.7099 21.0339 42.4272 23.0879 39.3157 23.0879C36.225 23.0879 33.9622 21.0339 33.9622 18.5995C33.9622 17.4013 34.4674 16.3174 35.3358 15.5186H32.4269C31.7804 15.5186 31.457 15.1002 31.457 14.6438C31.457 14.1683 31.7804 13.7499 32.4269 13.7499H38.1846V12.0003H36.5278C34.8107 12.0003 33.6594 11.0683 33.6594 9.26164V7.47401C33.6594 6.19962 34.3058 5.49597 35.7602 5.49597H43.9622C44.5886 5.49597 44.912 5.95253 44.912 6.40892C44.912 6.86532 44.5886 7.32171 43.9622 7.32171H36.548C36.1239 7.32171 35.9016 7.51196 35.9016 7.91135V9.22369Z" fill="#0066FF"/>
<path d="M61.295 16.6407C61.295 17.3443 60.7292 17.7056 60.1636 17.7056C59.5978 17.7056 59.0322 17.3443 59.0322 16.6407V6.27569C59.0322 5.5722 59.5978 5.21076 60.1636 5.21076C60.7292 5.21076 61.295 5.5722 61.295 6.27569V9.7941H63.4163C64.0627 9.7941 64.3857 10.2505 64.3857 10.7069C64.3857 11.1635 64.0627 11.6198 63.4163 11.6198H61.295V16.6407ZM54.2443 10.4789H50.0623V13.0464H54.2443V10.4789ZM50.0424 17.3825C50.0424 16.6407 50.5878 16.2793 51.214 16.2793C51.7798 16.2793 52.3857 16.6407 52.3857 17.3825V19.7788C52.3857 20.5204 52.7899 20.8246 53.3754 20.8246H60.7695C61.416 20.8246 61.7393 21.281 61.7393 21.7376C61.7393 22.194 61.416 22.6504 60.7695 22.6504H52.9108C51.1937 22.6504 50.0424 21.6425 50.0424 19.8356V17.3825ZM56.4666 12.8941C56.4666 14.1683 55.82 14.8529 54.3656 14.8529H49.9212C48.4665 14.8529 47.8201 14.1683 47.8201 12.8941V6.57995C47.8201 5.87646 48.3655 5.51502 48.9313 5.51502C49.4966 5.51502 50.0623 5.87646 50.0623 6.57995V8.67201H54.2443V6.56105C54.2443 5.8574 54.7897 5.51502 55.3555 5.51502C55.9008 5.51502 56.4666 5.8574 56.4666 6.56105V12.8941Z" fill="#0066FF"/>
<path d="M78.0621 21.2027C78.0621 21.9063 77.4964 22.2676 76.9307 22.2676C76.365 22.2676 75.7993 21.9063 75.7993 21.2027V6.27336C75.7993 5.56971 76.365 5.20844 76.9307 5.20844C77.4964 5.20844 78.0621 5.56971 78.0621 6.27336V10.3053H80.1833C80.8297 10.3053 81.1528 10.7616 81.1528 11.2181C81.1528 11.6745 80.8297 12.1311 80.1833 12.1311H78.0621V21.2027ZM69.1932 13.196C68.4051 14.8317 67.2336 16.3339 65.6578 17.38C65.4353 17.5321 65.2133 17.6083 64.991 17.6083C64.4053 17.6083 63.9205 17.0757 63.9205 16.5623C63.9205 16.2769 64.0617 16.0106 64.3851 15.8015C66.8294 14.242 68.0416 11.8648 68.0416 8.51755V8.17534H65.3547C64.7081 8.17534 64.3851 7.73784 64.3851 7.28128C64.3851 6.80583 64.7081 6.34959 65.3547 6.34959H73.0113C73.678 6.34959 74.0014 6.80583 74.0014 7.28128C74.0014 7.73784 73.678 8.17534 73.0113 8.17534H70.3852V8.82182C70.3852 12.169 71.6375 14.1469 74.0822 15.7064C74.4052 15.9157 74.5469 16.1818 74.5469 16.4672C74.5469 16.9806 74.0619 17.5132 73.4759 17.5132C73.2539 17.5132 73.0316 17.4371 72.8096 17.2849C71.1932 16.2199 69.981 14.7745 69.1932 13.196Z" fill="#0066FF"/>
<path d="M88.4046 21.2621C90.2028 21.2621 91.5159 19.9879 91.5159 18.3904C91.5159 16.8119 90.2028 15.5186 88.4046 15.5186C86.6067 15.5186 85.2936 16.8119 85.2936 18.3904C85.2936 19.9879 86.6067 21.2621 88.4046 21.2621ZM84.9905 9.22369C84.9905 9.88923 85.3743 10.1935 85.9805 10.1935H93.1925C93.819 10.1935 94.1218 10.65 94.1218 11.1063C94.1218 11.5628 93.819 12.0003 93.1925 12.0003H89.5765V13.7499H95.3138C95.9804 13.7499 96.3038 14.1683 96.3038 14.6438C96.3038 15.1002 95.9804 15.5186 95.3138 15.5186H92.4047C93.2935 16.3174 93.7988 17.4013 93.7988 18.5995C93.7988 21.0339 91.5159 23.0879 88.4046 23.0879C85.3139 23.0879 83.0511 21.0339 83.0511 18.5995C83.0511 17.4013 83.5563 16.3174 84.4247 15.5186H81.5158C80.8692 15.5186 80.5459 15.1002 80.5459 14.6438C80.5459 14.1683 80.8692 13.7499 81.5158 13.7499H87.2735V12.0003H85.6167C83.8996 12.0003 82.7483 11.0683 82.7483 9.26164V7.47401C82.7483 6.19962 83.3947 5.49597 84.8491 5.49597H93.0513C93.6775 5.49597 94.0009 5.95253 94.0009 6.40892C94.0009 6.86532 93.6775 7.32171 93.0513 7.32171H85.6369C85.2128 7.32171 84.9905 7.51196 84.9905 7.91135V9.22369Z" fill="#0066FF"/>
<path d="M108.222 12.9512C108.222 13.6549 107.717 14.0162 107.152 14.0162C106.586 14.0162 106.041 13.6549 106.041 12.9512V6.35191C106.041 5.64826 106.586 5.28683 107.152 5.28683C107.717 5.28683 108.222 5.64826 108.222 6.35191V8.84319H109.757V6.27585C109.757 5.5722 110.303 5.21092 110.869 5.21092C111.434 5.21092 112 5.5722 112 6.27585V13.9022C112 14.6058 111.434 14.9671 110.869 14.9671C110.303 14.9671 109.757 14.6058 109.757 13.9022V10.6689H108.222V12.9512ZM106.222 21.2621C107.899 21.2621 109.05 20.2542 109.05 18.8279C109.05 17.4206 107.899 16.3745 106.222 16.3745C104.545 16.3745 103.394 17.4206 103.394 18.8279C103.394 20.2542 104.545 21.2621 106.222 21.2621ZM106.222 14.5488C109.152 14.5488 111.313 16.3364 111.313 18.8279C111.313 21.3003 109.152 23.0879 106.222 23.0879C103.313 23.0879 101.172 21.3003 101.172 18.8279C101.172 16.3364 103.313 14.5488 106.222 14.5488ZM100.95 12.4947C102.04 12.4947 102.909 11.7721 102.909 10.6882C102.909 9.68008 102.081 8.97643 101.03 8.93832H100.869C99.7979 8.97643 98.9495 9.68008 98.9495 10.6882C98.9495 11.7721 99.8384 12.4947 100.95 12.4947ZM97.7373 8.93832H97.1108C96.4644 8.93832 96.1414 8.52004 96.1414 8.06348C96.1414 7.58803 96.4644 7.15069 97.1108 7.15069H99.7576V6.04765C99.7576 5.28683 100.363 4.94461 100.929 4.94461C101.536 4.94461 102.101 5.28683 102.101 6.04765V7.15069H104.586C105.252 7.15069 105.576 7.58803 105.576 8.06348C105.576 8.52004 105.252 8.93832 104.586 8.93832H104.162C104.667 9.48984 104.97 10.1746 104.97 10.9353C104.97 12.7801 103.252 14.1874 100.95 14.1874C98.6464 14.1874 96.9291 12.7801 96.9291 10.9353C96.9291 10.1746 97.2119 9.48984 97.7373 8.93832Z" fill="#0066FF"/>
</svg>
