<svg width="141" height="137" viewBox="0 0 141 137" fill="none" xmlns="http://www.w3.org/2000/svg">
<path d="M69.5163 61.7109H51.6115C47.1313 61.7109 43.4868 58.052 43.4868 53.5547V48.4112C43.4868 43.5597 47.4182 39.6126 52.2506 39.6126H69.5163V43.0981H52.2506C49.3402 43.0981 46.9721 45.4817 46.9721 48.4112V53.5547C46.9721 56.1302 49.0536 58.2256 51.6115 58.2256H69.5163V61.7109Z" fill="#0066FF"/>
<path d="M64.5773 81.8379C53.8846 81.8379 45.1855 73.0999 45.1855 62.3595H48.6708C48.6708 71.1779 55.8064 78.3526 64.5773 78.3526C73.3482 78.3526 80.4837 71.1779 80.4837 62.3595H83.969C83.969 73.0999 75.27 81.8379 64.5773 81.8379Z" fill="#0066FF"/>
<path d="M85.7612 47.4557C85.7612 46.2943 86.6982 45.3527 87.8539 45.3527C89.0095 45.3527 89.9465 46.2943 89.9465 47.4557C89.9465 48.617 89.0095 49.5586 87.8539 49.5586C86.6982 49.5586 85.7612 48.617 85.7612 47.4557Z" fill="#0066FF"/>
<path d="M74.5066 47.4557C74.5066 46.2943 75.4436 45.3527 76.5992 45.3527C77.7549 45.3527 78.6919 46.2943 78.6919 47.4557C78.6919 48.617 77.7549 49.5586 76.5992 49.5586C75.4436 49.5586 74.5066 48.617 74.5066 47.4557Z" fill="#0066FF"/>
<path d="M77.9884 51.7981C77.9884 51.8061 77.9873 51.8139 77.9873 51.8219C77.9873 54.1143 79.8366 55.9727 82.1179 55.9727C84.3991 55.9727 86.2485 54.1143 86.2485 51.8219C86.2485 51.8139 86.2474 51.8061 86.2472 51.7981H77.9884Z" fill="#0066FF"/>
<path d="M82.1096 63.1035C76.466 63.1037 71.4295 59.814 69.1539 54.5804C68.7702 53.6976 69.1747 52.6709 70.0572 52.2871C70.94 51.9032 71.9666 52.3079 72.3507 53.1904C74.1338 57.2925 78.1681 59.8072 82.6188 59.6063C88.0785 59.3558 92.5339 54.8571 92.762 49.3645C92.9235 45.4816 90.9557 41.8246 87.7465 39.8049C86.4376 41.8326 84.1871 43.0992 81.6738 43.0992H67.8564C63.3762 43.0992 59.7317 39.4402 59.7317 34.9429V29.7992C59.7317 24.9477 63.6631 21.0008 68.4955 21.0008H85.7612C86.7238 21.0008 87.5038 21.7809 87.5038 22.7435C87.5038 23.7061 86.7238 24.4863 85.7612 24.4863H68.4955C65.5851 24.4863 63.217 26.8697 63.217 29.7992V34.9429C63.217 37.5183 65.2984 39.6136 67.8564 39.6136H81.6738C83.3433 39.6136 84.7904 38.5323 85.2742 36.9228C85.4167 36.4484 85.7548 36.057 86.2034 35.8465C86.6517 35.6361 87.1689 35.6265 87.6249 35.8204C93.0257 38.1162 96.4898 43.6171 96.2448 49.5093C95.9421 56.791 90.027 62.7556 82.7785 63.0882C82.5547 63.0985 82.3315 63.1035 82.1096 63.1035Z" fill="#0066FF"/>
<path d="M9.06897 104.702C11.1438 104.702 12.659 103.14 12.659 101.181C12.659 99.2462 11.1438 97.6609 9.06897 97.6609C6.99417 97.6609 5.4789 99.2462 5.4789 101.181C5.4789 103.14 6.99417 104.702 9.06897 104.702ZM5.1289 89.9441C5.1289 90.7603 5.572 91.1332 6.27153 91.1332H14.5941C15.3167 91.1332 15.6667 91.6927 15.6667 92.2523C15.6667 92.8116 15.3167 93.348 14.5941 93.348H10.4211V95.4928H17.042C17.8115 95.4928 18.1846 96.0059 18.1846 96.5885C18.1846 97.1479 17.8115 97.6609 17.042 97.6609H13.685C14.7107 98.64 15.2936 99.9691 15.2936 101.437C15.2936 104.422 12.659 106.939 9.06897 106.939C5.502 106.939 2.891 104.422 2.891 101.437C2.891 99.9691 3.47386 98.64 4.47627 97.6609H1.11907C0.373099 97.6609 0 97.1479 0 96.5885C0 96.0059 0.373099 95.4928 1.11907 95.4928H7.76347V93.348H5.85154C3.87007 93.348 2.54123 92.2056 2.54123 89.9908V87.7996C2.54123 86.2374 3.28743 85.375 4.96603 85.375H14.431C15.1538 85.375 15.5267 85.9343 15.5267 86.4938C15.5267 87.0536 15.1538 87.6129 14.431 87.6129H5.8751C5.38534 87.6129 5.1289 87.8462 5.1289 88.3355V89.9441Z" fill="#332D2B"/>
<path d="M34.4326 99.0353C34.4326 99.8979 33.78 100.341 33.1271 100.341C32.4745 100.341 31.8216 99.8979 31.8216 99.0353V86.3296C31.8216 85.4672 32.4745 85.0241 33.1271 85.0241C33.78 85.0241 34.4326 85.4672 34.4326 86.3296V90.6428H36.8805C37.6265 90.6428 37.9996 91.2023 37.9996 91.7616C37.9996 92.3211 37.6265 92.8807 36.8805 92.8807H34.4326V99.0353ZM26.2965 91.4818H21.4705V94.629H26.2965V91.4818ZM21.4472 99.9446C21.4472 99.0353 22.0767 98.5922 22.7996 98.5922C23.4522 98.5922 24.1517 99.0353 24.1517 99.9446V102.882C24.1517 103.791 24.6179 104.164 25.2939 104.164H33.8267C34.5724 104.164 34.9455 104.724 34.9455 105.283C34.9455 105.843 34.5724 106.402 33.8267 106.402H24.7577C22.7762 106.402 21.4472 105.167 21.4472 102.952V99.9446ZM28.8609 94.4426C28.8609 96.0048 28.1149 96.8438 26.4363 96.8438H21.3074C19.6288 96.8438 18.8831 96.0048 18.8831 94.4426V86.7027C18.8831 85.8401 19.5121 85.3972 20.165 85.3972C20.8179 85.3972 21.4705 85.8401 21.4705 86.7027V89.2673H26.2965V86.6796C26.2965 85.8167 26.9261 85.3972 27.5787 85.3972C28.208 85.3972 28.8609 85.8167 28.8609 86.6796V94.4426Z" fill="#332D2B"/>
<path d="M53.7815 104.632C53.7815 105.495 53.1289 105.938 52.476 105.938C51.8234 105.938 51.1705 105.495 51.1705 104.632V86.331C51.1705 85.4686 51.8234 85.0255 52.476 85.0255C53.1289 85.0255 53.7815 85.4686 53.7815 86.331V91.2737H56.2294C56.9754 91.2737 57.3485 91.833 57.3485 92.3925C57.3485 92.9518 56.9754 93.5116 56.2294 93.5116H53.7815V104.632ZM43.5473 94.8171C42.6377 96.8219 41.2858 98.6638 39.4674 99.946C39.211 100.132 38.9546 100.226 38.6981 100.226C38.0219 100.226 37.4624 99.5731 37.4624 98.9436C37.4624 98.5938 37.6255 98.2674 37.9986 98.0109C40.8194 96.0992 42.2182 93.1851 42.2182 89.082V88.6624H39.1177C38.3717 88.6624 37.9986 88.1262 37.9986 87.5665C37.9986 86.9838 38.3717 86.4245 39.1177 86.4245H47.9533C48.7226 86.4245 49.0957 86.9838 49.0957 87.5665C49.0957 88.1262 48.7226 88.6624 47.9533 88.6624H44.9228V89.4551C44.9228 93.5582 46.368 95.9826 49.1888 97.8945C49.5619 98.1509 49.7252 98.4774 49.7252 98.8269C49.7252 99.4564 49.1655 100.109 48.4895 100.109C48.2331 100.109 47.9766 100.016 47.7202 99.8293C45.8552 98.5238 44.4563 96.7521 43.5473 94.8171Z" fill="#332D2B"/>
<path d="M65.7167 104.702C67.7915 104.702 69.3068 103.14 69.3068 101.181C69.3068 99.2462 67.7915 97.6609 65.7167 97.6609C63.6419 97.6609 62.1266 99.2462 62.1266 101.181C62.1266 103.14 63.6419 104.702 65.7167 104.702ZM61.7766 89.9441C61.7766 90.7603 62.2197 91.1332 62.9193 91.1332H71.2418C71.9644 91.1332 72.3144 91.6927 72.3144 92.2523C72.3144 92.8116 71.9644 93.348 71.2418 93.348H67.0689V95.4928H73.6897C74.4592 95.4928 74.8321 96.0059 74.8321 96.5885C74.8321 97.1479 74.4592 97.6609 73.6897 97.6609H70.3327C71.3585 98.64 71.9413 99.9691 71.9413 101.437C71.9413 104.422 69.3068 106.939 65.7167 106.939C62.1497 106.939 59.5387 104.422 59.5387 101.437C59.5387 99.9691 60.1216 98.64 61.124 97.6609H57.7668C57.0208 97.6609 56.6479 97.1479 56.6479 96.5885C56.6479 96.0059 57.0208 95.4928 57.7668 95.4928H64.4112V93.348H62.4995C60.5178 93.348 59.189 92.2056 59.189 89.9908V87.7996C59.189 86.2374 59.9351 85.375 61.6137 85.375H71.0787C71.8016 85.375 72.1747 85.9343 72.1747 86.4938C72.1747 87.0536 71.8016 87.6129 71.0787 87.6129H62.5228C62.0333 87.6129 61.7766 87.8462 61.7766 88.3355V89.9441Z" fill="#332D2B"/>
<path d="M88.586 94.5135C88.586 95.3761 88.0031 95.819 87.3505 95.819C86.6976 95.819 86.0681 95.3761 86.0681 94.5135V86.4238C86.0681 85.5612 86.6976 85.1183 87.3505 85.1183C88.0031 85.1183 88.586 85.5612 88.586 86.4238V89.4777H90.3577V86.3305C90.3577 85.4679 90.9872 85.025 91.6401 85.025C92.2927 85.025 92.9456 85.4679 92.9456 86.3305V95.6792C92.9456 96.5417 92.2927 96.9847 91.6401 96.9847C90.9872 96.9847 90.3577 96.5417 90.3577 95.6792V91.7158H88.586V94.5135ZM86.2779 104.701C88.2129 104.701 89.5419 103.466 89.5419 101.717C89.5419 99.992 88.2129 98.7098 86.2779 98.7098C84.3428 98.7098 83.0142 99.992 83.0142 101.717C83.0142 103.466 84.3428 104.701 86.2779 104.701ZM86.2779 96.4719C89.6582 96.4719 92.153 98.6633 92.153 101.717C92.153 104.748 89.6582 106.939 86.2779 106.939C82.9207 106.939 80.4496 104.748 80.4496 101.717C80.4496 98.6633 82.9207 96.4719 86.2779 96.4719ZM80.193 93.954C81.452 93.954 82.4545 93.068 82.4545 91.7392C82.4545 90.5037 81.4987 89.6408 80.2865 89.5944H80.0999C78.8644 89.6408 77.8853 90.5037 77.8853 91.7392C77.8853 93.068 78.911 93.954 80.193 93.954ZM76.4862 89.5944H75.7636C75.0179 89.5944 74.6448 89.0815 74.6448 88.522C74.6448 87.9391 75.0179 87.4029 75.7636 87.4029H78.8177V86.0507C78.8177 85.1183 79.5172 84.6986 80.1699 84.6986C80.8694 84.6986 81.522 85.1183 81.522 86.0507V87.4029H84.3895C85.1588 87.4029 85.5319 87.9391 85.5319 88.522C85.5319 89.0815 85.1588 89.5944 84.3895 89.5944H83.9002C84.4828 90.2703 84.8326 91.1096 84.8326 92.0421C84.8326 94.3035 82.8509 96.0288 80.193 96.0288C77.5353 96.0288 75.5538 94.3035 75.5538 92.0421C75.5538 91.1096 75.8803 90.2703 76.4862 89.5944Z" fill="#332D2B"/>
<path d="M107.808 105.042C110.292 105.042 112.106 103.172 112.106 100.828C112.106 98.5115 110.292 96.6138 107.808 96.6138C105.325 96.6138 103.511 98.5115 103.511 100.828C103.511 103.172 105.325 105.042 107.808 105.042ZM103.092 87.3767C103.092 88.3534 103.622 88.8 104.459 88.8H114.422C115.287 88.8 115.706 89.4698 115.706 90.1396C115.706 90.8091 115.287 91.451 114.422 91.451H109.427V94.0183H117.352C118.273 94.0183 118.72 94.6323 118.72 95.33C118.72 96 118.273 96.6138 117.352 96.6138H113.334C114.561 97.7859 115.259 99.3767 115.259 101.135C115.259 104.707 112.106 107.721 107.808 107.721C103.538 107.721 100.413 104.707 100.413 101.135C100.413 99.3767 101.111 97.7859 102.311 96.6138H98.292C97.3989 96.6138 96.9524 96 96.9524 95.33C96.9524 94.6323 97.3989 94.0183 98.292 94.0183H106.245V91.451H103.957C101.585 91.451 99.9944 90.0835 99.9944 87.4327V84.8094C99.9944 82.9395 100.887 81.9069 102.897 81.9069H114.227C115.092 81.9069 115.538 82.5767 115.538 83.2465C115.538 83.9161 115.092 84.5859 114.227 84.5859H103.985C103.399 84.5859 103.092 84.8652 103.092 85.4512V87.3767Z" fill="#0066FF"/>
<path d="M129.297 105.042C131.781 105.042 133.595 103.172 133.595 100.828C133.595 98.5115 131.781 96.6138 129.297 96.6138C126.814 96.6138 125 98.5115 125 100.828C125 103.172 126.814 105.042 129.297 105.042ZM124.581 87.3767C124.581 88.3534 125.111 88.8 125.948 88.8H135.911C136.776 88.8 137.195 89.4698 137.195 90.1396C137.195 90.8091 136.776 91.451 135.911 91.451H130.916V94.0183H138.842C139.762 94.0183 140.209 94.6323 140.209 95.33C140.209 96 139.762 96.6138 138.842 96.6138H134.823C136.051 97.7859 136.748 99.3767 136.748 101.135C136.748 104.707 133.595 107.721 129.297 107.721C125.028 107.721 121.902 104.707 121.902 101.135C121.902 99.3767 122.6 97.7859 123.8 96.6138H119.781C118.888 96.6138 118.442 96 118.442 95.33C118.442 94.6323 118.888 94.0183 119.781 94.0183H127.735V91.451H125.446C123.074 91.451 121.484 90.0835 121.484 87.4327V84.8094C121.484 82.9395 122.376 81.9069 124.386 81.9069H135.716C136.581 81.9069 137.027 82.5767 137.027 83.2465C137.027 83.9161 136.581 84.5859 135.716 84.5859H125.474C124.888 84.5859 124.581 84.8652 124.581 85.4512V87.3767Z" fill="#0066FF"/>
<path d="M4.9984 116.135C6.33295 116.135 6.97598 115.327 6.97598 114.007C6.97598 112.691 6.33295 111.894 5.06634 111.894H4.02894V116.135H4.9984ZM3.35205 116.736V111.293H5.1114C6.70147 111.293 7.63754 112.312 7.63754 114.007C7.63754 115.706 6.70147 116.736 5.04346 116.736H3.35205Z" fill="#332D2B"/>
<path d="M10.825 116.181C11.8098 116.177 12.5729 115.418 12.5768 114.016C12.5729 112.61 11.8098 111.85 10.825 111.85C9.83975 111.85 9.07663 112.61 9.07319 114.016C9.07663 115.418 9.83975 116.177 10.825 116.181ZM10.825 116.812C9.42662 116.812 8.41507 115.737 8.41896 114.016C8.41507 112.294 9.42662 111.219 10.825 111.219C12.2195 111.219 13.2345 112.294 13.2308 114.016C13.2345 115.737 12.2195 116.812 10.825 116.812Z" fill="#332D2B"/>
<path d="M18.5459 116.736H17.8994L14.9519 112.496H14.8998V116.736H14.2229V111.293H14.8769L17.8244 115.541H17.8766V111.293H18.5459V116.736Z" fill="#332D2B"/>
<path d="M21.9212 111.85C20.9589 111.85 20.1957 112.61 20.1916 114.016C20.1957 115.418 20.9589 116.177 21.9663 116.181C22.8836 116.177 23.5188 115.568 23.5301 114.602H22.1093V114.008H24.1918V114.594C24.1918 115.944 23.2633 116.812 21.9663 116.812C20.5116 116.812 19.5339 115.737 19.5376 114.016C19.5339 112.294 20.5229 111.219 21.9212 111.219C23.0716 111.219 23.9585 111.94 24.1619 112.993H23.4626C23.2295 112.294 22.6995 111.85 21.9212 111.85Z" fill="#332D2B"/>
<path d="M26.8529 116.135C28.1874 116.135 28.8304 115.327 28.8304 114.007C28.8304 112.691 28.1874 111.894 26.9203 111.894H25.8829V116.135H26.8529ZM25.2061 116.736V111.293H26.9654C28.5555 111.293 29.492 112.312 29.492 114.007C29.492 115.706 28.5555 116.736 26.8979 116.736H25.2061Z" fill="#332D2B"/>
<path d="M32.679 116.181C33.6642 116.177 34.4274 115.418 34.4308 114.016C34.4274 112.61 33.6642 111.85 32.679 111.85C31.6942 111.85 30.9311 112.61 30.9272 114.016C30.9311 115.418 31.6942 116.177 32.679 116.181ZM32.679 116.812C31.2806 116.812 30.2695 115.737 30.273 114.016C30.2695 112.294 31.2806 111.219 32.679 111.219C34.0739 111.219 35.0889 112.294 35.085 114.016C35.0889 115.737 34.0739 116.812 32.679 116.812Z" fill="#332D2B"/>
<path d="M40.4004 116.736H39.7534L36.8064 112.496H36.7538V116.736H36.0769V111.293H36.7314L39.6784 115.541H39.731V111.293H40.4004V116.736Z" fill="#332D2B"/>
<path d="M43.7753 111.85C42.8129 111.85 42.0498 112.61 42.0461 114.016C42.0498 115.418 42.8129 116.177 43.8203 116.181C44.7376 116.177 45.3729 115.568 45.3846 114.602H43.9633V114.008H46.0459V114.594C46.0459 115.944 45.1174 116.812 43.8203 116.812C42.3657 116.812 41.3882 115.737 41.3921 114.016C41.3882 112.294 42.3769 111.219 43.7753 111.219C44.9257 111.219 45.813 111.94 46.0159 112.993H45.3166C45.0835 112.294 44.5535 111.85 43.7753 111.85Z" fill="#332D2B"/>
<path d="M46.955 116.294C46.9479 116.031 47.173 115.813 47.4361 115.813C47.7033 115.813 47.9215 116.031 47.9174 116.294C47.9215 116.561 47.7033 116.779 47.4361 116.783C47.173 116.779 46.9479 116.561 46.955 116.294ZM47.4361 112.791C47.7033 112.791 47.9215 113.009 47.9174 113.272C47.9215 113.539 47.7033 113.757 47.4361 113.761C47.173 113.757 46.9479 113.539 46.955 113.272C46.9479 113.009 47.173 112.791 47.4361 112.791Z" fill="#332D2B"/>
<path d="M51.2553 111.293L52.7516 113.819H52.8191L54.3153 111.293H55.0972L53.1274 114.503V116.736H52.4432V114.503L50.481 111.293H51.2553Z" fill="#332D2B"/>
<path d="M57.7625 116.181C58.7473 116.177 59.5104 115.418 59.5143 114.016C59.5104 112.61 58.7473 111.85 57.7625 111.85C56.7772 111.85 56.0141 112.61 56.0107 114.016C56.0141 115.418 56.7772 116.177 57.7625 116.181ZM57.7625 116.812C56.3641 116.812 55.3526 115.737 55.3565 114.016C55.3526 112.294 56.3641 111.219 57.7625 111.219C59.157 111.219 60.172 112.294 60.1685 114.016C60.172 115.737 59.157 116.812 57.7625 116.812Z" fill="#332D2B"/>
<path d="M65.4008 111.293V114.894C65.4008 116.014 64.5627 116.83 63.2807 116.834C61.9949 116.83 61.1604 116.014 61.1604 114.894V111.293H61.8373V114.842C61.8332 115.631 62.3824 116.199 63.2807 116.202C64.1788 116.199 64.7203 115.631 64.7244 114.842V111.293H65.4008Z" fill="#332D2B"/>
<path d="M68.4303 114.007C69.2984 114.007 69.637 113.616 69.6407 112.969C69.637 112.319 69.2984 111.894 68.4228 111.894H67.2799V114.007H68.4303ZM66.603 111.293H68.4527C69.7274 111.293 70.31 112 70.31 112.969C70.31 113.691 69.9865 114.255 69.2948 114.496L70.5204 116.736H69.731L68.592 114.62C68.5504 114.624 68.5053 114.624 68.4603 114.624H67.2799V116.736H66.603V111.293Z" fill="#332D2B"/>
<path d="M74.8653 116.135C76.1999 116.135 76.8427 115.327 76.8427 114.007C76.8427 112.691 76.1999 111.894 74.9328 111.894H73.8954V116.135H74.8653ZM73.2185 116.736V111.293H74.9779C76.5679 111.293 77.5044 112.312 77.5044 114.007C77.5044 115.706 76.5679 116.736 74.9104 116.736H73.2185Z" fill="#332D2B"/>
<path d="M81.0037 114.608L80.1393 112.173H80.094L79.2291 114.608H81.0037ZM77.7708 116.736L79.763 111.293H80.4774L82.4696 116.736H81.7557L81.2105 115.203H79.0227L78.4771 116.736H77.7708Z" fill="#332D2B"/>
<path d="M83.8829 116.736H83.2061V111.293H83.8829V116.736Z" fill="#332D2B"/>
<path d="M85.0857 111.293H85.7626V116.135H88.2887V116.736H85.0857V111.293Z" fill="#332D2B"/>
<path d="M89.2243 111.293L90.7206 113.819H90.788L92.2843 111.293H93.0662L91.0964 114.503V116.736H90.4122V114.503L88.45 111.293H89.2243Z" fill="#332D2B"/>
<path d="M97.9227 111.85C96.9374 111.85 96.1743 112.61 96.1709 114.016C96.1743 115.418 96.9374 116.177 97.9227 116.181C98.6407 116.177 99.2796 115.775 99.4414 115.031H100.118C99.9224 116.143 99.028 116.812 97.9227 116.812C96.5243 116.812 95.5127 115.737 95.5166 114.016C95.5127 112.294 96.5243 111.219 97.9227 111.219C99.0239 111.219 99.9149 111.876 100.118 113.008H99.4414C99.2835 112.256 98.6407 111.85 97.9227 111.85Z" fill="#332D2B"/>
<path d="M103.26 116.181C104.245 116.177 105.008 115.418 105.012 114.016C105.008 112.61 104.245 111.85 103.26 111.85C102.275 111.85 101.512 112.61 101.508 114.016C101.512 115.418 102.275 116.177 103.26 116.181ZM103.26 116.812C101.862 116.812 100.851 115.737 100.854 114.016C100.851 112.294 101.862 111.219 103.26 111.219C104.655 111.219 105.67 112.294 105.666 114.016C105.67 115.737 104.655 116.812 103.26 116.812Z" fill="#332D2B"/>
<path d="M107.47 111.293L109.305 115.774H109.372L111.207 111.293H112.019V116.736H111.38V112.624H111.327L109.635 116.736H109.034L107.342 112.624H107.297V116.736H106.658V111.293H107.47Z" fill="#332D2B"/>
<path d="M115.048 114.157C115.917 114.157 116.255 113.669 116.259 113.022C116.255 112.372 115.917 111.894 115.04 111.894H113.898V114.157H115.048ZM113.221 111.293H115.071C116.345 111.293 116.928 112.052 116.928 113.022C116.928 113.988 116.345 114.759 115.078 114.759H113.898V116.736H113.221V111.293Z" fill="#332D2B"/>
<path d="M120.085 114.608L119.221 112.173H119.175L118.311 114.608H120.085ZM116.852 116.736L118.845 111.293H119.559L121.551 116.736H120.837L120.292 115.203H118.104L117.559 116.736H116.852Z" fill="#332D2B"/>
<path d="M126.611 116.736H125.964L123.017 112.496H122.964V116.736H122.288V111.293H122.942L125.889 115.541H125.942V111.293H126.611V116.736Z" fill="#332D2B"/>
<path d="M128.49 116.736H127.813V111.293H128.49V116.736Z" fill="#332D2B"/>
<path d="M131.888 116.181C132.873 116.177 133.636 115.418 133.64 114.016C133.636 112.61 132.873 111.85 131.888 111.85C130.903 111.85 130.14 112.61 130.136 114.016C130.14 115.418 130.903 116.177 131.888 116.181ZM131.888 116.812C130.49 116.812 129.478 115.737 129.482 114.016C129.478 112.294 130.49 111.219 131.888 111.219C133.283 111.219 134.298 112.294 134.294 114.016C134.298 115.737 133.283 116.812 131.888 116.812Z" fill="#332D2B"/>
<path d="M139.609 116.736H138.962L136.015 112.496H135.963V116.736H135.286V111.293H135.94L138.887 115.541H138.94V111.293H139.609V116.736Z" fill="#332D2B"/>
</svg>
